<svg width="17" height="16" viewBox="0 0 17 16" fill="none" xmlns="http://www.w3.org/2000/svg">
<path fill-rule="evenodd" clip-rule="evenodd" d="M14.0033 1H8.0033C7.45101 1 7.0033 1.44772 7.0033 2V5H6.0033V2C6.0033 0.89543 6.89873 0 8.0033 0H14.0033C15.1079 0 16.0033 0.895431 16.0033 2V8C16.0033 9.10457 15.1079 10 14.0033 10H11.0033V9H14.0033C14.5556 9 15.0033 8.55229 15.0033 8V2C15.0033 1.44772 14.5556 1 14.0033 1ZM0.146218 6.14622C-0.0487393 6.34118 -0.0487393 6.65726 0.146218 6.85222L4.294 11L0.146219 15.1478C-0.0487389 15.3427 -0.0487389 15.6588 0.146219 15.8538C0.341176 16.0487 0.657265 16.0487 0.852222 15.8538L5 11.706L9.14778 15.8538C9.34273 16.0487 9.65882 16.0487 9.85378 15.8538C10.0487 15.6588 10.0487 15.3427 9.85378 15.1478L5.706 11L9.85378 6.85222C10.0487 6.65726 10.0487 6.34118 9.85378 6.14622C9.65882 5.95126 9.34274 5.95126 9.14778 6.14622L5 10.294L0.852222 6.14622C0.657264 5.95126 0.341176 5.95126 0.146218 6.14622Z" fill="black"/>
</svg>
