<svg xmlns="http://www.w3.org/2000/svg">
 <svg>
  <symbol id="difficult_sort" viewBox="0 0 24 24">
   <path d="M5 20H19V19H5V20ZM11 10H19V9H11V10ZM8 15H19V14H8V15ZM14 4V5H19V4H14Z"/>
  </symbol>
 </svg>
 <svg>
  <symbol id="alphabet_ru" viewBox="0 0 24 24">
   <path d="M14.764 9 15.8475 11H17.0002L12.6659 3H11.3343L7 11H8.1527L9.2362 9H14.764ZM9.778 8H14.2222L12.0001 3.8987 9.778 8ZM10.75 14H15V17.5H10.75C9.7835 17.5 9 16.7165 9 15.75C9 14.7835 9.7835 14 10.75 14ZM10.75 13H15H16V14V17.5V18.5V21H15V18.5H11.3462L9.2942 20.9999H8.0005L10.1132 18.4259C8.9015 18.1387 8 17.0496 8 15.75C8 14.2312 9.2312 13 10.75 13Z"/>
  </symbol>
 </svg>
 <svg>
  <symbol id="alphabet_en" viewBox="0 0 24 24">
   <path d="M14.764 9 15.8475 11H17.0002L12.6659 3H11.3343L7 11H8.1527L9.2362 9H14.764ZM9.778 8H14.2222L12.0001 3.8987 9.778 8ZM15.8222 13.7771 9.8325 20.0057H16V21H8V20.2229L14.0171 13.9943H8.0957V13H15.8222V13.7771Z"/>
  </symbol>
 </svg>
 <svg>
  <symbol id="non_sort" viewBox="0 0 24 24">
   <path d="M6.04987 21H7.04763V4.914L9.69481 7.56711L10.4002 6.8591L6.55076 3L2.7002 6.8591L3.40558 7.56711L6.04987 4.914V21ZM17.0533 3H18.051V19.086L20.6982 16.4329L21.4036 17.1409L17.5542 21L13.7036 17.1409L14.409 16.4329L17.0533 19.086V3Z"/>
  </symbol>
 </svg>
 <svg>
  <symbol id="time" viewBox="0 0 24 24">
   <path d="M20 12C20 16.4183 16.4183 20 12 20C7.58172 20 4 16.4183 4 12C4 7.58172 7.58172 4 12 4C16.4183 4 20 7.58172 20 12ZM21 12C21 16.9706 16.9706 21 12 21C7.02944 21 3 16.9706 3 12C3 7.02944 7.02944 3 12 3C16.9706 3 21 7.02944 21 12ZM11 6H12V12H16V13H12H11V12V6Z"/>
  </symbol>
 </svg>
 <svg>
  <symbol id="date" viewBox="0 0 24 24">
   <path d="M7 3H6V5.5H4V6.5H20V5.5H18V3H17V5.5H7V3ZM4 9H5V10V12V17C5 18.6569 6.34315 20 8 20H16C17.6569 20 19 18.6569 19 17V12V10V9H20V10V17C20 19.2091 18.2091 21 16 21H8C5.79086 21 4 19.2091 4 17V10V9ZM8 11H11V12H8V11ZM16 11H13V12H16V11ZM8 15H11V16H8V15ZM16 15H13V16H16V15Z"/>
  </symbol>
 </svg>
 <svg>
  <symbol id="debt" viewBox="0 0 24 24">
   <path d="M14.54 22H5V3H19V13H18V4H6V21H13V19.656C13.002 18.308 13.916 17.121 15.225 16.768L19 15.753V16.687L14.54 22ZM14 21H14.074L17.203 17.272L15.484 17.734C14.611 17.969 14.002 18.759 14 19.657V21Z"/>
  </symbol>
 </svg>
 <svg>
  <symbol id="deflection" viewBox="0 0 24 24">
   <path d="M20.5 21H3.5L12.0013 3L20.5 21ZM5.1 20H18.9L12 5.3L5.1 20Z"/>
  </symbol>
 </svg>
 <svg>
  <symbol id="number" viewBox="0 0 24 24">
   <path d="M10 11h5v-1h-2V2h-.527L9.466 4.09l.535.626 1.548-.97.566-.577L12 4l.006 6.001H10V11Zm-.784 6.009c.15.306.354.564.611.772.262.212.558.369.896.479.335.109.695.162 1.072.162.49 0 .883-.05 1.185-.15.301-.1.577-.28.825-.538-.075.457-.21.885-.402 1.276-.192.39-.447.74-.754 1.045-.31.306-.68.56-1.108.76a4.934 4.934 0 0 1-1.449.411l.251.774a5.916 5.916 0 0 0 1.85-.501 4.42 4.42 0 0 0 1.474-1.094c.417-.466.741-1.041.979-1.721.235-.683.354-1.478.354-2.389 0-.965-.265-1.714-.793-2.248-.524-.53-1.26-.797-2.201-.797-.503 0-.935.069-1.309.205a2.588 2.588 0 0 0-.937.57c-.248.24-.437.526-.568.857-.129.332-.192.69-.192 1.075-.001.394.07.745.216 1.052Zm1.4-2.449c.316-.309.755-.464 1.317-.464.342 0 .64.06.896.183.255.12.455.287.616.501.157.214.275.454.354.725.079.269.117.549.117.839v.253c0 .08-.01.174-.027.28-.139.21-.371.38-.694.507-.325.13-.713.192-1.164.192-.563 0-1.019-.141-1.364-.428-.345-.287-.519-.714-.519-1.288-.001-.556.156-.989.469-1.3Z"/>
  </symbol>
 </svg>
 <svg>
  <symbol id="partner" viewBox="0 0 24 24">
   <path d="M14.8 6.8a2.8 2.8 0 1 1-5.6 0 2.8 2.8 0 0 1 5.6 0Zm1 0a3.8 3.8 0 1 1-7.6 0 3.8 3.8 0 0 1 7.6 0ZM5.577 16.105A3 3 0 0 1 8.441 14h7.118a3 3 0 0 1 2.864 2.105L19.64 20H4.36l1.217-3.895Zm13.8-.298L20.687 20 21 21H3l.313-1 1.31-4.193A4 4 0 0 1 8.44 13h7.118a4 4 0 0 1 3.818 2.807Z"/>
  </symbol>
 </svg>
 <svg>
  <symbol id="recall" viewBox="0 0 24 24">
   <path d="m12 20.967 6.86-6.859h-.001l.813-.813a4.85 4.85 0 0 0-6.859-6.859L12 7.25l-.813-.813a4.85 4.85 0 0 0-6.859 6.859l.813.813L12 20.968v-.001Zm0-1.414 6.965-6.965a3.85 3.85 0 0 0-5.445-5.445l-.813.813-.707.707-.707-.707-.813-.813a3.85 3.85 0 0 0-5.445 5.445L12 19.553Z"/>
  </symbol>
 </svg>
 <svg>
  <symbol id="problem" viewBox="0 0 24 24">
   <path d="M15.725 3H8.271L3 8.272v7.456L8.272 21h7.454L21 15.728V8.272L15.725 3ZM15.2 20.008H8.805L4 15.2V8.8l4.8-4.792h6.4L20 8.8v6.4l-4.8 4.808ZM11.677 13.5h.65l.973-5.181V7h-2.6v1.319l.977 5.181ZM12 17.002a1.2 1.2 0 1 0 0-2.4 1.2 1.2 0 0 0 0 2.4Z"/>
  </symbol>
 </svg>
 <svg>
  <symbol id="rating" viewBox="0 0 24 24">
   <path d="M17.09 21 12 17.318l-5.09 3.68-1.266-.92 1.943-5.956L2.5 10.44 3 9.003h6.3L11.218 3h1.568L14.7 9h6.299l.501 1.444-5.088 3.683 1.944 5.954L17.09 21ZM12 16.05l5.1 3.65-2-6 5.1-3.7h-6.3L12 4.2 10.1 10H3.8l5.1 3.7-2 6 5.1-3.65Z"/>
  </symbol>
 </svg>
 <svg>
  <symbol id="timing" viewBox="0 0 24 24">
   <path d="M18.4925 4.01562H20.0001L20.0002 3H4.00018L4.00009 4.01562H5.50445L8.57291 10.592C8.79688 11.0625 8.95802 11.592 9.29947 11.992C8.95802 12.3931 8.78906 12.8984 8.57291 13.3931L5.50338 20H3.99902L4.00018 21H20.0002L19.999 20H18.4925L15.4193 13.3874C15.2266 12.8672 14.9922 12.4434 14.6927 11.9874C14.9609 11.5371 15.2031 11.0938 15.4171 10.592L18.4925 4.01562ZM13.5626 12.4434C13.8672 12.6953 14.1641 13.1719 14.3666 13.688L17.3492 19.9978L6.6329 20L9.62783 13.6891C9.82812 13.25 10.0703 12.8047 10.4286 12.4491L11.0078 11.9931L10.4286 11.5371C10.0938 11.2031 9.82812 10.7656 9.62783 10.2983L6.64337 4.01562L17.3503 4.01793L14.3644 10.2926C14.1406 10.7578 13.875 11.2344 13.5626 11.5326L12.9844 11.9886L13.5626 12.4434Z"/>
  </symbol>
 </svg>
 <svg>
  <symbol id="sum" viewBox="0 0 24 24">
   <path d="M17 3H6v2h.006l-.002.002 6.806 7L6.004 19H6v2h11v-1H7v-.59l7.203-7.406-.001-.001.002-.003L7 4.592V4h10V3Z"/>
  </symbol>
 </svg>
 <svg>
  <symbol id="price" viewBox="0 0 24 24">
   <path d="M8 3h5a5 5 0 0 1 0 10H9v3h6v1H9v4H8v-4H6v-1h2V3Zm5 9H9V4h4a4 4 0 0 1 0 8Z"/>
  </symbol>
 </svg>
 <svg>
  <symbol id="custom" viewBox="0 0 24 24">
   <path d="M3.079 4 12 18.15V4h1v16h-1.079L3 5.85V20H2V4h1.079ZM22 12v1h-6v-1h6Zm-1-5a2 2 0 1 1-4 0 2 2 0 0 1 4 0Zm1 0a3 3 0 1 1-6 0 3 3 0 0 1 6 0Z"/>
  </symbol>
 </svg>
 <svg>
  <symbol id="arrow" viewBox="0 0 24 24">
   <path d="M8 15.5a.5.5 0 001 0V1.67l2.15 2.18a.5.5 0 10.7-.71l-3-3a.5.5 0 00-.4-.14.5.5 0 00-.31.14l-3 3a.5.5 0 10.7.71L8 1.67V15.5z"/>
  </symbol>
 </svg>
 <svg>
  <symbol id="arrow_ASC" viewBox="0 0 7 16">
   <path d="M3 15.5a.5.5 0 001 0v-13.83l2.15 2.18a.5.5 0 10.7-.71l-3-3a.5.5 0 00-.4-.14a.5.5 0 00-.31.14l-3 3a.5.5 0 10.7.71l2.16-2.18v13.83z"/>
  </symbol>
 </svg>
 <svg>
  <symbol id="arrow_DESC" viewBox="0 0 7 16">
   <path transform="rotate(180 3.5 8)" d="M3 15.5a.5.5 0 001 0v-13.83l2.15 2.18a.5.5 0 10.7-.71l-3-3a.5.5 0 00-.4-.14a.5.5 0 00-.31.14l-3 3a.5.5 0 10.7.71l2.16-2.18v13.83z"/>
  </symbol>
 </svg>
 <svg>
  <symbol id="difficult_sort_ASC" viewBox="0 0 24 24">
   <path d="M17.9908 21H18.9885V4.914L21.6357 7.5671 22.3411 6.8591 18.4917 3 14.6411 6.8591 15.3465 7.5671 17.9908 4.914V21ZM2 19H12V18H2V19ZM6 10H12V11H6V10ZM4 14H12V15H4V14ZM8 6H12V7H8V6Z"/>
  </symbol>
 </svg>
 <svg>
  <symbol id="alphabet_ru_ASC" viewBox="0 0 24 24">
   <path d="M10 4H5.75C4.7835 4 4 4.7835 4 5.75C4 6.7165 4.7835 7.5 5.75 7.5H10V4ZM10 3H5.75C4.2312 3 3 4.2312 3 5.75C3 7.0496 3.9015 8.1387 5.1133 8.4259L3.0005 10.9999H4.2942L6.3462 8.5H10V11H11V8.5V7.5V4V3H10ZM10.8475 21 9.764 19H4.2362L3.1527 21H2L6.3343 13H7.6659L12.0002 21H10.8475ZM9.2222 18H4.778L7.0001 13.8987 9.2222 18ZM17.9908 21H18.9885V4.914L21.6357 7.5671 22.3411 6.8591 18.4917 3 14.6411 6.8591 15.3465 7.5671 17.9908 4.914V21Z"/>
  </symbol>
 </svg>
 <svg>
  <symbol id="alphabet_en_ASC" viewBox="0 0 24 24">
   <path d="M10.8475 11 9.764 9H4.2362L3.1527 11H2L6.3343 3H7.6659L12.0002 11H10.8475ZM9.2222 8H4.778L7.0001 3.8987 9.2222 8ZM4.8325 20.0057 10.8222 13.7771V13H3.0957V13.9943H9.0171L3 20.2229V21H11V20.0057H4.8325ZM17.9908 21H18.9885V4.914L21.6357 7.5671 22.3411 6.8591 18.4917 3 14.6411 6.8591 15.3465 7.5671 17.9908 4.914V21Z"/>
  </symbol>
 </svg>
 <svg>
  <symbol id="time_ASC" viewBox="0 0 24 24">
   <path d="M18.9908 21H19.9885V4.914L22.6357 7.56711L23.3411 6.8591L19.4917 3L15.6411 6.8591L16.3465 7.56711L18.9908 4.914V21ZM1.0415 12C1.0415 15.859 4.1825 19 8.0415 19C11.9005 19 15.0415 15.859 15.0415 12C15.0415 8.141 11.9005 5 8.0415 5C4.1825 5 1.0415 8.141 1.0415 12ZM2.0415 12C2.0415 8.691 4.7325 6 8.0415 6C11.3505 6 14.0415 8.691 14.0415 12C14.0415 15.309 11.3505 18 8.0415 18C4.7325 18 2.0415 15.309 2.0415 12ZM8.0415 12H11.0415V13H7.0415V7H8.0415V12Z"/>
  </symbol>
 </svg>
 <svg>
  <symbol id="date_ASC" viewBox="0 0 24 24">
   <path d="M18.9908 21H19.9885V4.914L22.6357 7.56711L23.3411 6.8591L19.4917 3L15.6411 6.8591L16.3465 7.56711L18.9908 4.914V21ZM11 19C12.104 19 13 18.104 13 17V10H14V17C14 18.654 12.654 20 11 20H4C2.346 20 1 18.654 1 17V10H2V17C2 18.104 2.896 19 4 19H11ZM12 5V7H14V8H1V7H3V5H4V7H11V5H12ZM6.5 12H4.5V13H6.5V12ZM8.5 12H10.5V13H8.5V12ZM6.5 15H4.5V16H6.5V15ZM8.5 15H10.5V16H8.5V15Z"/>
  </symbol>
 </svg>
 <svg>
  <symbol id="debt_ASC" viewBox="0 0 24 24">
   <path d="M17.9908 21H18.9885V4.914L21.6357 7.56711L22.3411 6.8591L18.4917 3L14.6411 6.8591L15.3465 7.56711L17.9908 4.914V21ZM2 19H8.53998L13 13.687V12.753L9.22498 13.768C7.91598 14.121 7.002 15.308 7 16.656V18H3V6H12V10H13V5H2V19ZM8.07397 18H8V16.657C8.002 15.759 8.61101 14.969 9.48401 14.734L11.203 14.272L8.07397 18Z"/>
  </symbol>
 </svg>
 <svg>
  <symbol id="deflection_ASC" viewBox="0 0 24 24">
   <path d="M18.9908 21H19.9885V4.914L22.6357 7.56711L23.3411 6.8591L19.4917 3L15.6411 6.8591L16.3465 7.56711L18.9908 4.914V21ZM1 20H15L8.00103 5L1 20ZM13.3926 18.9786H2.60843L8.00103 7.42472L13.3926 18.9786Z"/>
  </symbol>
 </svg>
 <svg>
  <symbol id="number_ASC" viewBox="0 0 24 24">
   <path d="M15.99 21h.998V4.914l2.648 2.653.705-.708L16.491 3l-3.85 3.86.706.707 2.644-2.653V21Zm-7.472 0h-3.92v-.771h1.545V15.17l.112-.615-.442.49-1.215.825-.42-.532 2.43-1.777h.398v6.666h1.512V21ZM4.65 7.852a1.9 1.9 0 0 1-.477-.657A2.165 2.165 0 0 1 4 6.301c0-.327.05-.632.15-.913.103-.282.25-.525.445-.73.195-.206.44-.368.733-.484A2.783 2.783 0 0 1 6.354 4c.738 0 1.314.226 1.725.678.413.454.621 1.09.621 1.91 0 .775-.093 1.45-.277 2.03-.186.579-.442 1.067-.767 1.464s-.71.707-1.156.93a4.353 4.353 0 0 1-1.448.425l-.195-.657a3.637 3.637 0 0 0 1.135-.35 3.05 3.05 0 0 0 .867-.646c.242-.259.44-.557.591-.888.152-.333.257-.696.314-1.085a1.57 1.57 0 0 1-.645.458c-.235.084-.544.128-.928.128-.296 0-.576-.046-.84-.139a2.122 2.122 0 0 1-.702-.406Zm1.652-3.133c-.443 0-.786.132-1.032.394-.247.265-.37.633-.37 1.106 0 .487.136.85.41 1.094.267.244.626.364 1.067.364.355 0 .658-.053.912-.163.252-.109.434-.253.542-.432.016-.089.021-.169.021-.237V6.63c0-.247-.029-.485-.09-.713a2.033 2.033 0 0 0-.278-.616 1.269 1.269 0 0 0-.484-.427 1.49 1.49 0 0 0-.698-.155Z"/>
  </symbol>
 </svg>
 <svg>
  <symbol id="partner_ASC" viewBox="0 0 24 24">
   <path d="M18.99 21h.998V4.914l2.648 2.653.705-.708L19.491 3l-3.85 3.86.705.707 2.645-2.653V21ZM4.54 8c0 1.654 1.328 3 2.96 3s2.96-1.346 2.96-3S9.133 5 7.5 5 4.54 6.346 4.54 8Zm.986 0c0-1.104.884-2 1.974-2 1.089 0 1.974.896 1.974 2S8.59 10 7.5 10c-1.09 0-1.974-.896-1.974-2Zm-3.523 7.225L1 19h13l-1.002-3.775C12.651 13.915 11.48 13 10.147 13H4.854c-1.332 0-2.504.915-2.851 2.225ZM12.71 18H2.287l.668-2.516A1.976 1.976 0 0 1 4.852 14h5.293c.886 0 1.666.61 1.897 1.484L12.71 18Z"/>
  </symbol>
 </svg>
 <svg>
  <symbol id="recall_ASC" viewBox="0 0 24 24">
   <path d="M18.99 21h.998V4.914l2.648 2.653.705-.708L19.491 3l-3.85 3.86.705.707 2.645-2.653V21ZM1.679 12.876 8 19.21l6.326-6.333a4.034 4.034 0 0 0 0-5.689 3.99 3.99 0 0 0-2.841-1.178 3.991 3.991 0 0 0-2.842 1.178l-.642.643-.641-.643A3.993 3.993 0 0 0 4.518 6.01a3.985 3.985 0 0 0-2.84 1.178A3.996 3.996 0 0 0 .5 10.032c0 1.075.418 2.085 1.178 2.844Zm.707-4.981a2.994 2.994 0 0 1 2.133-.885c.806 0 1.564.314 2.133.885l1.348 1.35 1.348-1.35a3.003 3.003 0 0 1 2.136-.885 3 3 0 0 1 2.134.885 3.03 3.03 0 0 1 0 4.274L8 17.793l-5.615-5.624a3 3 0 0 1-.885-2.137c0-.807.315-1.566.885-2.137Z"/>
  </symbol>
 </svg>
 <svg>
  <symbol id="problem_ASC" viewBox="0 0 24 24">
   <path d="M18.99 21h.998V4.914l2.648 2.653.705-.708L19.491 3l-3.85 3.86.705.707 2.645-2.653V21ZM5.1 5h5.798l4.103 4.101V14.9l-4.102 4.101H5.101L1 14.9V9.101L5.1 5Zm5.385 13L14 14.485h.001V9.514l-3.515-3.515H5.514L2 9.514v4.971L5.513 18h4.972ZM7 15a1 1 0 1 1 2 0 1 1 0 1 1-2 0Zm.75-2L7 9V8h2v1l-.748 4H7.75Z"/>
  </symbol>
 </svg>
 <svg>
  <symbol id="rating_ASC" viewBox="0 0 24 24">
   <path d="M18.99 21h.998V4.914l2.648 2.653.705-.708L19.491 3l-3.85 3.86.705.707 2.645-2.653V21ZM8 17.09l4.287 3.11 1.066-.776-1.638-5.028L16 11.286l-.405-1.255H10.3L8.662 5h-1.32l-1.637 5.03-5.297-.002L0 11.283l4.284 3.109-1.637 5.03 1.066.777L8 17.09Zm4.106 1.74L8 15.852 3.895 18.83l1.568-4.82-4.105-2.978h5.077l1.567-4.817 1.57 4.819h5.072l-4.106 2.978 1.568 4.819Z"/>
  </symbol>
 </svg>
 <svg>
  <symbol id="timing_ASC" viewBox="0 0 24 24">
   <path d="M17.9908 21H18.9885V4.914L21.6357 7.56711L22.3411 6.8591L18.4917 3L14.6411 6.8591L15.3465 7.56711L17.9908 4.914V21ZM13 6H11.618L10.293 10.779C10.172 11.23 9.942 11.65 9.629 12C9.942 12.351 10.173 12.772 10.295 13.225L11.619 18H13V19H2V18H3.379L4.65399 13.226C4.77599 12.771 5.00701 12.351 5.32001 12C5.00701 11.65 4.77699 11.228 4.65399 10.775L3.379 6H2V5H13V6ZM9.32999 13.488C9.21299 13.054 8.95099 12.67 8.59299 12.399L8.06299 12.001L8.59299 11.602C8.95099 11.331 9.213 10.947 9.328 10.517L10.571 6.03699L4.423 6.03497L5.621 10.518C5.736 10.947 5.99701 11.331 6.35501 11.602L6.88599 12.001L6.35501 12.4C5.99601 12.671 5.736 13.055 5.621 13.485L4.423 17.967L10.571 17.965L9.32999 13.488Z"/>
  </symbol>
 </svg>
 <svg>
  <symbol id="sum_ASC" viewBox="0 0 24 24">
   <path d="M16.99 21h.998V4.914l2.648 2.653.705-.708L17.491 3l-3.85 3.86.706.707 2.644-2.653V21ZM3 19h8v-1H4v-.307L9.176 12 4 6.307V6h7V5H3v1.693L7.824 12 3 17.307V19Z"/>
  </symbol>
 </svg>
 <svg>
  <symbol id="price_ASC" viewBox="0 0 24 24">
   <path d="M18.05 21h.998V4.914l2.647 2.653.705-.708L18.55 3 14.7 6.86l.706.707 2.644-2.653V21ZM12 9.007c0 2.203-1.795 3.982-3.999 3.982H5.003V15h5.005v1H5.003v3H4.002v-3H2v-1h2.002V5l3.999.013A4.002 4.002 0 0 1 12 9.007ZM8.001 6H5.003v6h2.998a2.998 2.998 0 0 0 2.998-2.993A3.01 3.01 0 0 0 8.001 6Z"/>
  </symbol>
 </svg>
 <svg>
  <symbol id="difficult_sort_DESC" viewBox="0 0 24 24">
   <path d="M19.0087 3H18.011V19.086L15.3638 16.4329 14.6584 17.1409 18.5078 21 22.3584 17.1409 21.653 16.4329 19.0087 19.086V3ZM2 19H12V18H2V19ZM6 10H12V11H6V10ZM4 14H12V15H4V14ZM8 6H12V7H8V6Z"/>
  </symbol>
 </svg>
 <svg>
  <symbol id="alphabet_ru_DESC" viewBox="0 0 24 24">
   <path d="M10.8475 11 9.764 9H4.2362L3.1527 11H2L6.3343 3H7.6659L12.0002 11H10.8475ZM9.2222 8H4.778L7.0001 3.8987 9.2222 8ZM10 14H5.75C4.7835 14 4 14.7835 4 15.75C4 16.7165 4.7835 17.5 5.75 17.5H10V14ZM10 13H5.75C4.2312 13 3 14.2312 3 15.75C3 17.0496 3.9015 18.1387 5.1132 18.4259L3.0005 20.9999H4.2942L6.3462 18.5H10V21H11V18.5V17.5V14V13H10ZM17.9908 3H18.9885V19.086L21.6357 16.4329 22.3411 17.1409 18.4917 21 14.6411 17.1409 15.3465 16.4329 17.9908 19.086V3Z"/>
  </symbol>
 </svg>
 <svg>
  <symbol id="alphabet_en_DESC" viewBox="0 0 24 24">
   <path d="M10.8475 11 9.764 9H4.2362L3.1527 11H2L6.3343 3H7.6659L12.0002 11H10.8475ZM9.2222 8H4.778L7.0001 3.8987 9.2222 8ZM4.8325 20.0057 10.8222 13.7771V13H3.0957V13.9943H9.0171L3 20.2229V21H11V20.0057H4.8325ZM17.9908 3H18.9885V19.086L21.6357 16.4329 22.3411 17.1409 18.4917 21 14.6411 17.1409 15.3465 16.4329 17.9908 19.086V3Z"/>
  </symbol>
 </svg>
 <svg>
  <symbol id="time_DESC" viewBox="0 0 24 24">
   <path d="M18.9908 3H19.9885V19.086L22.6357 16.4329L23.3411 17.1409L19.4917 21L15.6411 17.1409L16.3465 16.4329L18.9908 19.086V3ZM1.0415 12C1.0415 15.859 4.1825 19 8.0415 19C11.9005 19 15.0415 15.859 15.0415 12C15.0415 8.141 11.9005 5 8.0415 5C4.1825 5 1.0415 8.141 1.0415 12ZM2.0415 12C2.0415 8.691 4.7325 6 8.0415 6C11.3505 6 14.0415 8.691 14.0415 12C14.0415 15.309 11.3505 18 8.0415 18C4.7325 18 2.0415 15.309 2.0415 12ZM8.0415 12H11.0415V13H7.0415V7H8.0415V12Z"/>
  </symbol>
 </svg>
 <svg>
  <symbol id="date_DESC" viewBox="0 0 24 24">
   <path d="M18.9908 3H19.9885V19.086L22.6357 16.4329L23.3411 17.1409L19.4917 21L15.6411 17.1409L16.3465 16.4329L18.9908 19.086V3ZM11 19C12.104 19 13 18.104 13 17V10H14V17C14 18.654 12.654 20 11 20H4C2.346 20 1 18.654 1 17V10H2V17C2 18.104 2.896 19 4 19H11ZM12 5V7H14V8H1V7H3V5H4V7H11V5H12ZM6.5 12H4.5V13H6.5V12ZM8.5 12H10.5V13H8.5V12ZM6.5 15H4.5V16H6.5V15ZM8.5 15H10.5V16H8.5V15Z"/>
  </symbol>
 </svg>
 <svg>
  <symbol id="debt_DESC" viewBox="0 0 24 24">
   <path d="M17.9908 3H18.9885V19.086L21.6357 16.4329L22.3411 17.1409L18.4917 21L14.6411 17.1409L15.3465 16.4329L17.9908 19.086V3ZM2 19H8.53998L13 13.687V12.753L9.22498 13.768C7.91598 14.121 7.002 15.308 7 16.656V18H3V6H12V10H13V5H2V19ZM8.07397 18H8V16.657C8.002 15.759 8.61101 14.969 9.48401 14.734L11.203 14.272L8.07397 18Z"/>
  </symbol>
 </svg>
 <svg>
  <symbol id="deflection_DESC" viewBox="0 0 24 24">
   <path d="M18.9908 3H19.9885V19.086L22.6357 16.4329L23.3411 17.1409L19.4917 21L15.6411 17.1409L16.3465 16.4329L18.9908 19.086V3ZM1 20H15L8.00103 5L1 20ZM13.3926 18.9786H2.60843L8.00103 7.42472L13.3926 18.9786Z"/>
  </symbol>
 </svg>
 <svg>
  <symbol id="number_DESC" viewBox="0 0 24 24">
   <path d="M15.99 3h.998v16.086l2.648-2.653.705.708L16.491 21l-3.85-3.86.706-.707 2.644 2.653V3Zm-7.474 8.438H4.6v-.772h1.546V5.61l.11-.616-.444.491L4.6 6.31l-.42-.532L6.609 4h.398v6.665h1.51v.773Zm-3.868 5.976a1.904 1.904 0 0 1-.478-.657 2.183 2.183 0 0 1-.17-.893c0-.327.05-.632.15-.914.103-.281.25-.525.445-.729.197-.207.44-.368.734-.484a2.763 2.763 0 0 1 1.026-.175c.737 0 1.313.227 1.724.678.413.454.621 1.09.621 1.91 0 .775-.093 1.451-.277 2.031-.187.578-.44 1.067-.767 1.463-.325.398-.71.708-1.156.93A4.353 4.353 0 0 1 5.052 21l-.196-.658a3.637 3.637 0 0 0 1.135-.35 3.07 3.07 0 0 0 .868-.645c.24-.26.44-.557.59-.889.15-.332.256-.695.315-1.084a1.58 1.58 0 0 1-.646.458c-.237.084-.545.127-.929.127a2.52 2.52 0 0 1-.84-.138 2.123 2.123 0 0 1-.701-.407Zm1.65-3.132c-.44 0-.784.132-1.031.394-.245.264-.369.632-.368 1.105 0 .488.136.851.407 1.094.27.245.627.365 1.069.365.352 0 .657-.053.911-.164.253-.108.435-.253.544-.431a1.63 1.63 0 0 0 .021-.237v-.216c0-.246-.03-.484-.092-.713a2.007 2.007 0 0 0-.277-.616 1.29 1.29 0 0 0-.483-.426 1.498 1.498 0 0 0-.702-.155Z"/>
  </symbol>
 </svg>
 <svg>
  <symbol id="partner_DESC" viewBox="0 0 24 24">
   <path d="M18.99 3h.998v16.086l2.648-2.653.705.708L19.491 21l-3.85-3.86.705-.707 2.645 2.653V3ZM4.54 8c0 1.654 1.328 3 2.96 3s2.96-1.346 2.96-3S9.133 5 7.5 5 4.54 6.346 4.54 8Zm.986 0c0-1.104.884-2 1.974-2 1.089 0 1.974.896 1.974 2S8.59 10 7.5 10c-1.09 0-1.974-.896-1.974-2Zm-3.523 7.225L1 19h13l-1.002-3.775C12.651 13.915 11.48 13 10.147 13H4.854c-1.332 0-2.504.915-2.851 2.225ZM12.71 18H2.287l.668-2.516A1.976 1.976 0 0 1 4.852 14h5.293c.886 0 1.666.61 1.897 1.484L12.71 18Z"/>
  </symbol>
 </svg>
 <svg>
  <symbol id="recall_DESC" viewBox="0 0 24 24">
   <path d="M18.99 3h.998v16.086l2.648-2.653.705.708L19.491 21l-3.85-3.86.705-.707 2.645 2.653V3ZM1.679 12.876 8 19.21l6.326-6.333a4.034 4.034 0 0 0 0-5.689 3.99 3.99 0 0 0-2.841-1.178 3.991 3.991 0 0 0-2.842 1.178l-.642.643-.641-.643A3.993 3.993 0 0 0 4.518 6.01a3.985 3.985 0 0 0-2.84 1.178A3.996 3.996 0 0 0 .5 10.032c0 1.075.418 2.085 1.178 2.844Zm.707-4.981a2.994 2.994 0 0 1 2.133-.885c.806 0 1.564.314 2.133.885l1.348 1.35 1.348-1.35a3.003 3.003 0 0 1 2.136-.885 3 3 0 0 1 2.134.885 3.03 3.03 0 0 1 0 4.274L8 17.793l-5.615-5.624a3 3 0 0 1-.885-2.137c0-.807.315-1.566.885-2.137Z"/>
  </symbol>
 </svg>
 <svg>
  <symbol id="problem_DESC" viewBox="0 0 24 24">
   <path d="M18.99 3h.998v16.086l2.648-2.653.705.708L19.491 21l-3.85-3.86.705-.707 2.645 2.653V3ZM5.1 5h5.798l4.103 4.101V14.9l-4.102 4.101H5.101L1 14.9V9.101L5.1 5Zm5.385 13L14 14.485h.001V9.514l-3.515-3.515H5.514L2 9.514v4.971L5.513 18h4.972ZM7 15a1 1 0 1 1 2 0 1 1 0 1 1-2 0Zm.75-2L7 9V8h2v1l-.748 4H7.75Z"/>
  </symbol>
 </svg>
 <svg>
  <symbol id="rating_DESC" viewBox="0 0 24 24">
   <path d="M18.99 3h.998v16.086l2.648-2.653.705.708L19.491 21l-3.85-3.86.705-.707 2.645 2.653V3ZM8 17.09l4.287 3.11 1.066-.776-1.638-5.028L16 11.286l-.405-1.255H10.3L8.662 5h-1.32l-1.637 5.03-5.297-.002L0 11.283l4.284 3.109-1.637 5.03 1.066.777L8 17.09Zm4.106 1.74L8 15.852 3.895 18.83l1.568-4.82-4.105-2.978h5.077l1.567-4.817 1.57 4.819h5.072l-4.106 2.978 1.568 4.819Z"/>
  </symbol>
 </svg>
 <svg>
  <symbol id="timing_DESC" viewBox="0 0 24 24">
   <path d="M18.9908 3H19.9885V19.086L22.6357 16.4329L23.3411 17.1409L19.4917 21L15.6411 17.1409L16.3465 16.4329L18.9908 19.086V3ZM13 6H11.618L10.293 10.779C10.172 11.23 9.942 11.65 9.629 12C9.942 12.351 10.173 12.772 10.295 13.225L11.619 18H13V19H2V18H3.379L4.65399 13.226C4.77599 12.771 5.00701 12.351 5.32001 12C5.00701 11.65 4.77699 11.228 4.65399 10.775L3.379 6H2V5H13V6ZM9.32999 13.488C9.21299 13.054 8.95099 12.67 8.59299 12.399L8.06299 12.001L8.59299 11.602C8.95099 11.331 9.213 10.947 9.328 10.517L10.571 6.03699L4.423 6.03497L5.621 10.518C5.736 10.947 5.99701 11.331 6.35501 11.602L6.88599 12.001L6.35501 12.4C5.99601 12.671 5.736 13.055 5.621 13.485L4.423 17.967L10.571 17.965L9.32999 13.488Z"/>
  </symbol>
 </svg>
 <svg>
  <symbol id="sum_DESC" viewBox="0 0 24 24">
   <path d="M16.99 3h.998v16.086l2.648-2.653.705.708L17.491 21l-3.85-3.86.706-.707 2.644 2.653V3ZM3 19h8v-1H4v-.307L9.176 12 4 6.307V6h7V5H3v1.693L7.824 12 3 17.307V19Z"/>
  </symbol>
 </svg>
 <svg>
  <symbol id="price_DESC" viewBox="0 0 24 24">
   <path d="M16.99 3h.998v16.086l2.648-2.653.705.708L17.491 21l-3.85-3.86.706-.707 2.644 2.653V3ZM12 9.007c0 2.203-1.795 3.982-3.999 3.982H5.003V15h5.005v1H5.003v3H4.002v-3H2v-1h2.002V5l3.999.013A4.002 4.002 0 0 1 12 9.007ZM8.001 6H5.003v6h2.998a2.998 2.998 0 0 0 2.998-2.993A3.01 3.01 0 0 0 8.001 6Z"/>
  </symbol>
 </svg>
</svg>
